<svg width="69" height="55" viewBox="0 0 69 55" fill="none" xmlns="http://www.w3.org/2000/svg">
<path d="M0 26.7792C0 18.9077 5.32828 14.7397 11.1702 14.7397C14.3509 14.7397 16.2185 16.2074 17.2398 17.7266H17.2981V2.58559C17.2981 0.957388 17.2398 0.469968 16.7904 0.469968H14.6253C14.2284 0.469968 14.1174 0.412649 14.1174 0.194791C14.1174 -0.0230665 14.6194 0.0342477 15.0162 0.0342477H22.8016C23.1985 0.0342477 23.3093 0.0342645 23.3093 0.194791V35.6368C23.3093 37.2134 23.3677 37.7008 23.8229 37.7008H25.8013C26.1981 37.7008 26.7992 37.7524 26.7992 37.9702C26.7992 38.1881 26.5484 38.2397 26.1457 38.2397H17.7241C17.5549 38.2397 17.4674 37.5689 17.4674 37.4084V35.7974H17.3565C16.3352 37.374 14.4034 38.8932 11.1702 38.8932C5.27576 38.8817 0 34.5934 0 26.7792ZM17.2981 33.8365V19.7791C17.2981 18.4204 15.5999 15.3817 12.1391 15.3817C8.39231 15.3817 7.47013 17.9845 7.09078 22.3818C6.83374 25.3251 6.83374 28.2848 7.09078 31.2281C7.48764 35.6254 8.39231 38.2282 12.1391 38.2282C15.5999 38.2052 17.2981 35.1895 17.2981 33.8365Z" fill="#CBEBF0"/>
<path d="M40.1063 38.2054H28.5158C28.1773 38.2054 28.0664 38.1538 28.0664 37.9359C28.0664 37.7181 28.6209 37.6665 28.9652 37.6665H30.6869C31.2005 37.6665 31.2706 37.1219 31.2706 35.551V17.9618C31.2706 16.3909 31.218 15.9037 30.6869 15.9037H28.5158C28.1773 15.9037 28.0664 15.8464 28.0664 15.6285C28.0664 15.4107 28.7085 15.5884 29.047 15.5884H36.7564C37.1533 15.5884 37.34 15.468 37.34 15.6285L37.1941 35.551C37.1941 37.1219 37.2525 37.6665 37.7777 37.6665H39.902C40.2405 37.6665 40.7133 37.7181 40.7133 37.9359C40.7133 38.1538 40.4448 38.2054 40.1063 38.2054Z" fill="#CBEBF0"/>
<path d="M34.2048 6.80508C33.7528 6.81728 33.3029 6.74099 32.8813 6.58071C32.4596 6.42043 32.0747 6.17936 31.7488 5.87149C31.4229 5.56363 31.1626 5.19523 30.9831 4.78758C30.8036 4.37994 30.7084 3.9412 30.7031 3.49708C30.7069 3.0499 30.8007 2.60783 30.979 2.19635C31.1572 1.78487 31.4166 1.41215 31.742 1.09942C32.0674 0.786694 32.4525 0.540165 32.8751 0.374107C33.2978 0.208049 33.7496 0.125764 34.2048 0.131822C34.6582 0.124951 35.1085 0.207008 35.5293 0.373267C35.95 0.539527 36.3329 0.786565 36.6552 1.09998C36.9775 1.4134 37.2328 1.78684 37.4064 2.19845C37.5799 2.61006 37.6681 3.05157 37.6657 3.49708C37.6666 3.93954 37.5771 4.37768 37.4024 4.78548C37.2276 5.19329 36.9712 5.56251 36.6483 5.87107C36.3255 6.17964 35.9429 6.42123 35.5232 6.58169C35.1034 6.74215 34.655 6.81814 34.2048 6.80508V6.80508Z" fill="#CBEBF0"/>
<path d="M57.52 38.8817C54.2868 38.8817 52.4134 37.414 51.3921 35.8432H51.3337V51.0416C51.3337 52.6698 51.392 53.1572 51.9173 53.1572H54.8061C55.203 53.1572 55.4598 53.2088 55.4598 53.4266C55.4598 53.6445 55.1504 53.6961 54.8061 53.6961H42.4979C42.1594 53.6961 42.2119 53.6445 42.2119 53.4266C42.2119 53.2088 42.5679 53.1572 42.9122 53.1572H44.8265C45.3342 53.1572 45.4101 52.6698 45.4101 51.0416V17.9846C45.4101 16.4138 45.3517 15.9264 44.8265 15.9264H43.1398C42.7954 15.9264 42.2352 15.8691 42.2352 15.6512C42.2352 15.4334 43.0056 15.5423 43.3441 15.5423H50.7208C51.1761 15.5423 51.3804 15.4907 51.3804 15.6512L51.2345 17.8241H51.3453C52.425 16.1959 54.351 14.7283 57.5317 14.7283C63.3677 14.7283 68.6493 18.965 68.6493 26.7678C68.6493 34.5705 63.4203 38.8817 57.52 38.8817ZM61.6052 22.3819C61.15 17.9846 60.2396 15.3818 56.4987 15.3818C53.0379 15.3818 51.3337 18.4204 51.3337 19.7792V33.8366C51.3337 35.1896 53.0379 38.2282 56.4987 38.2282C60.2396 38.2282 61.2084 35.6827 61.6052 31.1765C61.8039 28.2482 61.8039 25.3101 61.6052 22.3819Z" fill="#CBEBF0"/>
<path d="M0.355469 27.1002C0.355469 19.2344 5.68973 15.0607 11.5317 15.0607C14.7065 15.0607 16.5798 16.5228 17.6011 18.042H17.6595V2.90084C17.6595 1.27264 17.6011 0.785362 17.1459 0.785362H15.1149C14.7181 0.785362 14.2395 0.728048 14.2395 0.515924C14.2395 0.303799 14.4263 0.240746 14.8231 0.240746L23.1629 0.206314C23.5598 0.206314 23.6707 0.315232 23.6707 0.481491V35.9522C23.6707 37.5288 23.729 38.016 24.1842 38.016H26.5187C26.9155 38.016 26.9915 38.1422 26.8923 38.3314C26.793 38.5206 26.6763 38.5608 26.3087 38.5608H18.8733C18.0505 38.5608 17.8696 38.4517 17.8696 38.2855V36.1185H17.7587C16.7374 37.6894 14.8057 39.2086 11.5725 39.2086C5.63141 39.2028 0.355469 34.9144 0.355469 27.1002ZM17.6595 34.1577V20.1001C17.6595 18.7414 15.9553 15.7029 12.4945 15.7029C8.75362 15.7029 7.82574 18.3114 7.44639 22.703C7.19226 25.6464 7.19226 28.6057 7.44639 31.5491C7.84325 35.9464 8.75362 38.5551 12.4945 38.5551C15.9553 38.5551 17.6595 35.5164 17.6595 34.1577Z" fill="#AAC3C9"/>
<path d="M40.2097 38.555H29.3255C28.8411 38.555 28.1875 38.4976 28.1875 38.2797C28.1875 38.0619 28.38 38.0103 28.7185 38.0103H31.053C31.5607 38.0103 31.6366 37.4657 31.6366 35.8948V18.3115C31.6366 16.7349 31.5782 16.2475 31.053 16.2475H29.2263C28.8878 16.2475 28.1933 16.1902 28.1933 15.9781C28.1933 15.7659 28.3859 15.7029 28.7244 15.7029L37.1224 15.571C37.5193 15.571 37.5777 15.6742 37.5777 15.8405V35.9063C37.5777 37.4772 37.6302 38.0218 38.1613 38.0218H40.4957C40.84 38.0218 40.8167 38.0734 40.8167 38.2912C40.8167 38.5091 40.5366 38.555 40.2097 38.555Z" fill="#AAC3C9"/>
<path d="M34.5681 7.12617C34.1161 7.13837 33.6662 7.06208 33.2445 6.90181C32.8229 6.74153 32.4378 6.50045 32.1119 6.19259C31.7861 5.88472 31.5257 5.51618 31.3462 5.10854C31.1667 4.70089 31.0717 4.26229 31.0664 3.81817C31.0702 3.371 31.1639 2.92892 31.3421 2.51745C31.5204 2.10597 31.7797 1.73324 32.1051 1.42052C32.4305 1.10779 32.8156 0.861259 33.2383 0.695202C33.6609 0.529144 34.1129 0.446718 34.5681 0.452777C35.0212 0.445893 35.4713 0.528036 35.8917 0.694362C36.3121 0.860688 36.6945 1.10786 37.0163 1.42136C37.3382 1.73485 37.5931 2.10838 37.7659 2.51997C37.9388 2.93155 38.0261 3.37294 38.023 3.81817C38.0247 4.26036 37.9359 4.69838 37.7618 5.10616C37.5877 5.51394 37.3319 5.8831 37.0095 6.19175C36.6871 6.50039 36.3049 6.74226 35.8855 6.90279C35.466 7.06331 35.018 7.13925 34.5681 7.12617V7.12617Z" fill="#AAC3C9"/>
<path d="M57.8772 39.2028C54.644 39.2028 52.7765 37.7408 51.7552 36.1642H51.6969V51.3914C51.6969 53.0196 51.7553 53.5069 52.2805 53.5069H55.1985C55.5954 53.5069 55.5895 53.5584 55.5895 53.7763C55.5895 53.9941 55.3269 54.0515 54.6091 54.0515H43.5205C43.182 54.0515 42.3182 54.0515 42.4174 53.7763C42.5167 53.5011 42.5283 53.5069 42.8727 53.5069H45.2071C45.7207 53.5069 45.7907 53.0196 45.7907 51.3914V18.3115C45.7907 16.7349 45.7382 16.2475 45.2071 16.2475H43.4563C43.1178 16.2475 42.2891 16.1902 42.2891 15.9781C42.2891 15.7659 42.4991 15.7029 42.8435 15.7029L51.0666 15.571C51.5218 15.571 51.5801 15.8118 51.5801 15.9781V18.1394H51.6911C52.7707 16.5112 54.6965 15.0494 57.8714 15.0494C63.7075 15.0494 68.995 19.2804 68.995 27.0889C68.995 34.8973 63.7775 39.2028 57.8772 39.2028ZM61.9625 22.703C61.5131 18.3114 60.6027 15.7029 56.8617 15.7029C53.4009 15.7029 51.6969 18.7414 51.6969 20.1001V34.1577C51.6969 35.5164 53.4009 38.555 56.8617 38.555C60.6027 38.555 61.5656 36.0038 61.9625 31.4976C62.1601 28.5769 62.1601 25.6466 61.9625 22.7259V22.703Z" fill="#AAC3C9"/>
<path d="M0.152344 26.8882C0.152344 19.0223 5.48647 14.8487 11.3284 14.8487C14.5032 14.8487 16.3767 16.3106 17.398 17.8298H17.4563V2.66009C17.4563 1.0319 17.398 0.544616 16.9428 0.544616H14.6083C14.2115 0.544616 14.0947 0.493035 14.0947 0.275177C14.0947 0.0573197 14.2115 0 14.6083 0H22.9481C23.345 0 23.4558 0.108918 23.4558 0.275177V35.7113C23.4558 37.2879 23.5142 37.7753 23.9694 37.7753H26.3039C26.7007 37.7753 26.8174 37.8326 26.8174 38.0447C26.8174 38.2569 26.7007 38.3199 26.3039 38.3199H18.0808C17.6839 38.3199 17.6255 38.211 17.6255 38.0447V35.912H17.5147C16.4934 37.4829 14.5616 39.0021 11.3284 39.0021C5.42811 38.9906 0.152344 34.7024 0.152344 26.8882ZM17.4563 33.9456V19.8881C17.4563 18.5351 15.7522 15.4907 12.2914 15.4907C8.55049 15.4907 7.62247 18.0994 7.24313 22.4967C6.989 25.4401 6.989 28.3993 7.24313 31.3428C7.63998 35.7343 8.55049 38.3429 12.2914 38.3429C15.7522 38.3429 17.4563 35.3044 17.4563 33.9456V33.9456Z" fill="url(#paint0_linear_801_6939)"/>
<path d="M40.2581 38.3429H28.5158C28.1773 38.3429 28.0664 38.2855 28.0664 38.0677C28.0664 37.8498 28.1773 37.7982 28.5158 37.7982H30.8502C31.358 37.7982 31.4338 37.2536 31.4338 35.6828V18.0993C31.4338 16.5227 31.3755 16.0354 30.8502 16.0354H28.5158C28.1773 16.0354 28.0664 15.9839 28.0664 15.766C28.0664 15.5482 28.1773 15.4907 28.5158 15.4907H36.914C37.3109 15.4907 37.3692 15.5997 37.3692 15.766V35.6828C37.3692 37.2536 37.4218 37.7982 37.9528 37.7982H40.2873C40.6316 37.7982 40.7425 37.8556 40.7425 38.0677C40.7425 38.2798 40.6024 38.3429 40.2581 38.3429Z" fill="url(#paint1_linear_801_6939)"/>
<path d="M34.363 6.91972C33.9105 6.93193 33.4602 6.85557 33.0382 6.69493C32.6161 6.5343 32.2308 6.29265 31.9049 5.98418C31.5789 5.6757 31.3188 5.30647 31.1396 4.89816C30.9604 4.48985 30.8658 4.05058 30.8613 3.60598C30.8651 3.15881 30.9589 2.71687 31.1372 2.30539C31.3154 1.89392 31.5746 1.52105 31.9 1.20832C32.2254 0.895597 32.6105 0.649068 33.0332 0.48301C33.4559 0.316952 33.9078 0.234667 34.363 0.240725C34.8162 0.233841 35.2662 0.315984 35.6866 0.48231C36.1071 0.648636 36.4894 0.895809 36.8113 1.2093C37.1331 1.5228 37.388 1.89633 37.5609 2.30791C37.7337 2.7195 37.8212 3.16075 37.818 3.60598C37.8206 4.04865 37.7323 4.48733 37.5586 4.89578C37.3848 5.30423 37.129 5.67408 36.8065 5.98334C36.4841 6.29259 36.1016 6.5349 35.6818 6.69577C35.262 6.85665 34.8134 6.93282 34.363 6.91972Z" fill="url(#paint2_linear_801_6939)"/>
<path d="M57.6729 38.9908C54.4397 38.9908 52.5721 37.5288 51.5508 35.9522H51.4924V51.1506C51.4924 52.7788 51.5508 53.2661 52.076 53.2661H54.994C55.3909 53.2661 55.5017 53.3234 55.5017 53.5355C55.5017 53.7477 55.3325 53.8107 54.994 53.8107H42.6857C42.3414 53.8107 42.2305 53.7534 42.2305 53.5355C42.2305 53.3177 42.3414 53.2661 42.6857 53.2661H45.0201C45.5337 53.2661 45.6037 52.7788 45.6037 51.1506V18.0993C45.6037 16.5227 45.5512 16.0354 45.0201 16.0354H42.6857C42.3414 16.0354 42.2305 15.9839 42.2305 15.766C42.2305 15.5481 42.3414 15.4907 42.6857 15.4907H50.9088C51.364 15.4907 51.4223 15.5997 51.4223 15.766V17.933H51.5333C52.613 16.3048 54.5388 14.8429 57.7136 14.8429C63.5497 14.8429 68.8372 19.0739 68.8372 26.8824C68.8372 34.6909 63.5731 38.9908 57.6729 38.9908ZM61.7581 22.4966C61.3087 18.0994 60.3983 15.4907 56.6515 15.4907C53.1966 15.4907 51.4924 18.5351 51.4924 19.8881V33.9456C51.4924 35.3044 53.1966 38.3429 56.6515 38.3429C60.3983 38.3429 61.3613 35.7916 61.7581 31.2854C61.9567 28.359 61.9567 25.423 61.7581 22.4966V22.4966Z" fill="url(#paint3_linear_801_6939)"/>
<defs>
<linearGradient id="paint0_linear_801_6939" x1="13.4819" y1="2.25883" x2="13.4819" y2="48.5878" gradientUnits="userSpaceOnUse">
<stop stopColor="#BAE1E9"/>
<stop offset="1" stopColor="#B1D8E2"/>
</linearGradient>
<linearGradient id="paint1_linear_801_6939" x1="31242.4" y1="49086" x2="31242.4" y2="50932.6" gradientUnits="userSpaceOnUse">
<stop stopColor="#BAE1E9"/>
<stop offset="1" stopColor="#B1D8E2"/>
</linearGradient>
<linearGradient id="paint2_linear_801_6939" x1="17161" y1="14346" x2="17161" y2="14885.9" gradientUnits="userSpaceOnUse">
<stop stopColor="#BAE1E9"/>
<stop offset="1" stopColor="#B1D8E2"/>
</linearGradient>
<linearGradient id="paint3_linear_801_6939" x1="66522.4" y1="83690.4" x2="66522.4" y2="86839.4" gradientUnits="userSpaceOnUse">
<stop stopColor="#BAE1E9"/>
<stop offset="1" stopColor="#B1D8E2"/>
</linearGradient>
</defs>
</svg>
